<?xml version="1.0" standalone="no"?>
<!DOCTYPE svg PUBLIC "-//W3C//DTD SVG 20010904//EN"
 "http://www.w3.org/TR/2001/REC-SVG-20010904/DTD/svg10.dtd">
<svg version="1.0" xmlns="http://www.w3.org/2000/svg"
 width="255.000000pt" height="140.000000pt" viewBox="0 0 255.000000 140.000000"
 preserveAspectRatio="xMidYMid meet">

<g transform="translate(0.000000,140.000000) scale(0.100000,-0.100000)"
fill="#000000" stroke="none">
<path d="M1553 1390 c-70 -10 -130 -47 -197 -121 l-55 -62 -43 46 c-49 52
-207 137 -255 137 -17 0 -41 -9 -54 -20 l-24 -20 45 6 c35 4 41 3 28 -6 -24
-15 -23 -30 2 -30 11 0 20 -6 20 -12 0 -7 16 -26 35 -43 19 -16 37 -42 41 -58
6 -26 5 -27 -21 -17 -34 13 -35 13 -35 -5 0 -9 -6 -12 -15 -9 -10 4 -13 14 -9
29 4 18 -5 34 -44 74 -27 28 -55 51 -61 51 -7 0 -9 -4 -6 -10 3 -5 -7 -2 -23
7 -26 15 -33 15 -58 3 -28 -13 -28 -14 -6 -18 25 -4 28 -12 10 -30 -9 -9 -9
-12 0 -12 7 0 12 -8 12 -17 0 -16 2 -16 10 -3 9 13 16 9 45 -22 45 -49 53 -92
26 -151 -12 -25 -25 -49 -31 -52 -11 -7 -6 9 21 62 23 45 7 59 -23 22 -11 -13
-17 -18 -13 -11 4 7 0 12 -9 12 -9 0 -16 7 -16 15 0 8 -4 15 -8 15 -5 0 -14
16 -22 35 -10 24 -16 31 -22 23 -6 -10 -13 -7 -28 11 -11 13 -20 29 -20 37 0
7 -4 15 -10 19 -11 7 -43 -52 -63 -120 -19 -65 -6 -152 28 -189 24 -26 45 -73
28 -63 -6 4 -8 -4 -5 -18 5 -29 18 -33 25 -7 3 9 4 5 4 -10 -1 -15 -5 -24 -11
-21 -5 3 -6 1 -3 -4 8 -12 47 -24 48 -15 0 4 2 15 4 25 2 9 -10 30 -26 46 -35
35 -23 50 15 20 32 -26 51 -20 59 18 8 41 60 93 85 86 13 -3 20 0 19 9 -1 31
4 48 14 48 7 0 8 -11 4 -30 -5 -23 -3 -30 9 -30 9 0 16 8 16 21 0 11 5 17 10
14 6 -3 10 -16 10 -27 0 -12 3 -18 7 -14 4 4 6 24 4 44 l-3 37 22 -28 c12 -15
35 -34 51 -43 16 -8 27 -20 23 -25 -4 -8 1 -9 17 -3 13 4 34 7 47 6 15 -1 21
2 16 9 -4 7 -21 9 -41 6 -24 -4 -33 -2 -30 6 2 7 0 20 -5 30 -11 21 -7 21 40
2 24 -10 38 -12 40 -5 8 22 22 8 22 -22 0 -18 7 -46 15 -62 9 -16 15 -55 15
-90 0 -36 4 -56 9 -48 6 10 12 7 25 -13 13 -20 16 -39 11 -83 -7 -64 6 -100
43 -118 21 -11 21 -11 -18 -43 -22 -17 -37 -25 -34 -17 4 10 -3 19 -18 26 -27
13 -48 52 -48 91 0 56 -18 36 -39 -44 -27 -103 -34 -115 -55 -98 -15 12 -30
12 -139 -2 -31 -4 -79 -47 -52 -47 8 0 15 5 15 10 0 6 12 10 26 10 14 0 23 -4
20 -8 -12 -20 43 -33 127 -30 48 2 88 -1 90 -5 1 -5 25 -13 52 -18 27 -5 58
-18 70 -29 27 -25 55 -25 99 0 66 37 152 45 268 26 153 -25 186 -26 263 -10
92 19 98 18 129 -11 l27 -25 -35 -55 c-20 -30 -38 -66 -42 -80 -6 -24 -10 -26
-60 -24 -54 2 -84 -11 -84 -37 0 -10 13 -14 43 -15 45 -1 44 -2 -20 -19 -51
-13 -78 -37 -63 -54 5 -7 7 -16 3 -19 -3 -4 1 -7 10 -7 9 0 16 6 14 12 -1 9
17 15 53 19 30 4 72 10 94 14 35 7 38 6 29 -10 -8 -14 -24 -18 -78 -19 -44 -1
-70 -5 -72 -13 -5 -13 75 -12 110 2 9 4 17 3 17 -3 0 -5 -10 -13 -22 -17 -13
-3 -18 -8 -13 -11 6 -2 53 7 105 21 81 21 71 28 -12 9 -19 -4 -28 -2 -28 5 0
7 4 10 9 6 5 -3 12 -1 16 5 3 5 1 10 -6 10 -7 0 -9 8 -5 20 3 11 9 29 12 39 5
17 1 19 -43 18 -26 0 -70 0 -97 1 -43 2 -47 4 -35 18 10 12 29 15 86 12 75 -3
80 0 63 33 -6 11 -8 24 -5 30 9 14 57 -35 73 -74 11 -30 12 -30 9 -5 -4 30 -2
35 30 62 19 15 25 16 38 6 8 -7 12 -17 8 -24 -4 -6 18 10 48 35 30 25 72 56
94 67 22 12 34 21 26 22 -17 0 -102 -53 -126 -80 -10 -11 -22 -17 -26 -14 -13
8 -11 24 2 21 6 -1 14 4 17 12 3 10 0 12 -12 8 -29 -11 -17 11 39 71 43 46 60
59 76 55 17 -5 20 -2 17 18 -2 18 -11 25 -33 29 -19 3 -37 16 -50 37 -16 25
-27 32 -53 33 -28 0 -35 5 -47 34 -12 29 -25 38 -85 62 l-70 27 6 61 c5 56 3
66 -29 127 -31 57 -37 79 -46 180 -13 140 -23 175 -61 228 -50 68 -99 97 -198
115 -48 9 -91 15 -97 15 -5 -1 -33 -5 -62 -9z m110 -111 c21 -6 55 -26 75 -45
l37 -35 -43 30 c-106 73 -274 65 -394 -20 -17 -13 -28 -17 -24 -11 13 22 89
65 146 84 57 19 126 18 203 -3z m-142 -299 c15 -9 26 -8 42 2 12 8 31 12 42
11 85 -13 101 -18 112 -32 7 -9 13 -22 13 -29 0 -17 52 -91 64 -92 4 0 26 19
48 43 37 40 39 41 53 23 8 -11 15 -30 15 -41 0 -31 -58 -108 -75 -101 -9 3
-20 -7 -31 -30 -27 -56 -88 -96 -202 -129 l-64 -19 -45 25 c-84 45 -118 82
-132 141 -6 30 -11 67 -10 84 1 16 -1 50 -6 77 -5 31 -4 47 3 47 6 0 13 -4 17
-10 3 -5 11 -7 18 -4 25 9 86 -25 93 -52 8 -33 2 -37 -30 -23 -20 10 -32 9
-53 -1 -16 -7 -23 -15 -15 -17 6 -3 12 -13 12 -24 0 -14 7 -19 29 -19 17 0 33
5 37 12 5 8 2 9 -10 5 -10 -4 -15 -3 -11 3 3 6 1 10 -4 10 -6 0 -11 5 -11 10
0 15 26 12 40 -5 9 -11 9 -19 2 -28 -15 -17 -9 -47 11 -59 19 -10 23 2 6 19
-8 8 -8 22 0 49 16 59 14 79 -16 114 -21 25 -32 31 -55 28 -17 -3 -28 0 -28 8
0 12 55 13 67 1 13 -14 33 16 27 42 l-5 26 16 -27 c8 -15 25 -32 36 -38z m299
-280 c0 -5 -5 -10 -11 -10 -5 0 -7 5 -4 10 3 6 8 10 11 10 2 0 4 -4 4 -10z
m-6 -44 c19 4 25 0 36 -25 11 -27 10 -35 -13 -74 -42 -71 -52 -75 -90 -39 -25
24 -42 32 -70 32 -20 0 -37 4 -37 8 0 24 143 125 148 105 2 -8 12 -11 26 -7z
m-216 -93 c15 -9 28 -18 30 -19 2 -1 -13 -19 -33 -39 -44 -43 -55 -38 -62 29
-5 42 -4 46 16 46 12 0 34 -8 49 -17z m-363 -33 c-3 -5 -12 -10 -18 -10 -7 0
-6 4 3 10 19 12 23 12 15 0z m851 -379 c-5 -8 -46 -19 -101 -26 -11 -2 -40 -8
-65 -14 -47 -10 -61 -8 -44 9 23 23 223 52 210 31z"/>
<path d="M1567 963 c-15 -15 -4 -19 48 -19 47 1 53 3 38 14 -18 13 -75 17 -86
5z"/>
<path d="M1583 913 c-27 -10 -11 -18 37 -18 27 0 46 3 42 6 -10 10 -65 18 -79
12z"/>
<path d="M1393 903 c-24 -9 -13 -18 22 -18 19 0 35 3 35 8 0 4 -4 7 -9 7 -5 0
-15 2 -23 4 -7 3 -19 2 -25 -1z"/>
<path d="M1861 871 c-6 -11 -11 -30 -11 -43 0 -22 0 -22 19 -3 23 24 31 56 14
62 -6 2 -16 -5 -22 -16z m16 -23 c-3 -8 -6 -5 -6 6 -1 11 2 17 5 13 3 -3 4
-12 1 -19z"/>
<path d="M1570 870 c0 -5 5 -10 10 -10 6 0 10 -8 8 -17 -4 -21 41 -30 69 -14
17 10 17 10 1 11 -10 0 -18 5 -18 10 0 6 8 10 18 10 14 0 15 2 2 10 -20 13
-90 13 -90 0z"/>
<path d="M1518 773 c7 -3 16 -2 19 1 4 3 -2 6 -13 5 -11 0 -14 -3 -6 -6z"/>
<path d="M1472 698 c-14 -17 29 -68 57 -68 19 0 41 26 41 48 0 11 -45 32 -69
32 -10 0 -23 -6 -29 -12z m58 -38 c12 -8 11 -10 -7 -10 -13 0 -23 5 -23 10 0
13 11 13 30 0z"/>
<path d="M944 972 c2 -4 21 -9 41 -10 23 -2 34 1 30 8 -3 5 -22 10 -41 10 -19
0 -33 -4 -30 -8z"/>
<path d="M1097 963 c-12 -11 -8 -47 8 -77 11 -20 12 -33 5 -40 -16 -16 -12
-25 10 -19 24 6 24 1 -1 57 -11 26 -17 55 -14 66 6 20 3 25 -8 13z"/>
<path d="M1140 960 c-13 -9 -13 -10 0 -9 8 0 24 4 35 9 l20 9 -20 0 c-11 0
-27 -4 -35 -9z"/>
<path d="M944 940 c-40 -16 -33 -26 11 -16 24 6 41 14 39 18 -6 10 -23 9 -50
-2z"/>
<path d="M1132 932 c-19 -13 -3 -42 23 -42 37 0 54 10 48 27 -4 11 -2 14 5 9
7 -4 12 -2 12 3 0 13 -69 14 -88 3z m38 -12 c0 -5 -8 -10 -17 -10 -15 0 -16 2
-3 10 19 12 20 12 20 0z"/>
<path d="M930 900 c-12 -7 -12 -10 -1 -10 7 0 11 -6 7 -15 -4 -11 2 -15 22
-15 24 0 71 19 48 20 -5 0 -3 7 4 15 11 13 7 15 -26 15 -22 0 -46 -5 -54 -10z"/>
<path d="M711 850 c-1 -21 27 -60 43 -60 8 0 19 -7 26 -15 7 -8 21 -15 31 -15
16 0 19 -8 19 -54 0 -52 2 -56 48 -96 64 -58 105 -76 139 -64 32 11 37 37 12
60 -18 16 -19 16 -19 -3 0 -10 -6 -27 -12 -36 -12 -16 -16 -15 -53 9 -52 35
-95 75 -95 89 0 6 6 19 13 29 12 17 15 16 60 -1 26 -11 45 -22 41 -25 -3 -4 3
-4 14 -2 10 3 25 -1 33 -8 8 -8 22 -17 32 -21 9 -4 21 -16 26 -28 8 -22 8 -22
27 5 10 16 35 46 54 69 35 40 26 43 -17 4 -19 -17 -32 -19 -80 -14 -32 2 -84
14 -116 26 -57 20 -111 62 -98 77 3 4 -2 4 -12 1 -11 -4 -26 1 -39 13 -12 11
-30 20 -39 20 -10 0 -22 12 -27 28 -6 15 -11 20 -11 12z"/>
<path d="M1030 838 c0 -9 4 -19 9 -22 12 -8 41 3 41 15 0 4 -7 6 -16 2 -9 -3
-20 0 -25 8 -7 11 -9 11 -9 -3z"/>
<path d="M1068 773 c-56 -18 -62 -33 -15 -34 17 0 26 -3 19 -6 -21 -8 -3 -23
29 -23 22 0 32 6 39 24 5 13 14 28 21 32 9 5 7 10 -7 15 -26 10 -33 10 -86 -8z"/>
<path d="M1204 738 l-19 -23 23 19 c21 18 27 26 19 26 -2 0 -12 -10 -23 -22z"/>
<path d="M756 654 c-4 -23 -4 -59 -1 -80 12 -71 15 -75 38 -68 31 9 32 12 12
34 -10 11 -24 51 -30 88 l-11 67 -8 -41z"/>
<path d="M593 629 c3 -13 8 -34 11 -47 2 -12 8 -27 12 -34 4 -7 3 -8 -5 -4 -6
4 -20 25 -31 47 -11 21 -22 39 -24 39 -7 0 0 -125 8 -138 4 -6 3 -12 -1 -12
-5 0 -16 12 -25 28 -9 15 -28 38 -43 52 l-27 25 7 -40 c9 -47 22 -75 35 -75
11 0 13 -30 4 -54 -3 -9 -12 -16 -19 -16 -7 0 -16 -6 -18 -12 -3 -7 -13 6 -23
30 -9 23 -21 42 -26 42 -4 0 -8 5 -8 11 0 11 -24 39 -34 39 -11 0 -6 -35 9
-64 8 -15 15 -32 15 -38 0 -5 8 -26 19 -48 13 -27 15 -42 8 -49 -8 -8 -8 -14
1 -23 9 -9 23 -4 62 20 28 18 58 32 65 32 16 0 31 -43 21 -59 -4 -6 5 -13 19
-17 14 -3 25 -11 25 -18 0 -7 4 -6 9 3 7 11 15 10 45 -4 40 -19 50 -42 14 -30
-34 11 -148 17 -123 6 21 -9 116 -24 150 -25 11 0 19 6 17 13 -6 26 9 48 31
47 18 -1 22 5 23 30 0 24 -3 31 -14 26 -10 -3 -13 0 -10 9 3 8 1 23 -5 34 -8
17 -5 16 18 -5 41 -38 48 -57 31 -81 -10 -15 -12 -29 -5 -51 12 -43 14 -42 14
9 0 37 5 49 28 69 47 41 83 21 37 -21 -25 -23 -25 -36 -1 -57 17 -15 23 -14
77 8 38 15 63 20 73 14 13 -7 4 -14 -39 -33 -30 -14 -64 -28 -75 -32 -19 -7
-19 -7 3 -16 12 -5 32 -5 45 0 12 4 47 5 77 2 l55 -6 -56 -17 c-31 -10 -70
-18 -87 -18 -18 0 -32 -4 -32 -9 0 -10 55 -5 105 10 17 5 49 7 72 4 42 -4 42
-4 23 15 -11 11 -20 26 -19 33 0 9 2 9 6 0 3 -8 14 -11 29 -7 14 4 31 1 41 -7
12 -10 15 -10 9 -2 -4 7 -2 13 4 13 6 0 13 -7 16 -15 8 -20 68 -20 87 0 14 13
18 10 40 -30 14 -25 21 -45 14 -45 -6 0 4 -11 23 -25 40 -29 91 -33 141 -9 20
9 25 13 11 10 -25 -5 -32 8 -83 149 -21 59 -25 81 -16 87 8 5 6 8 -5 8 -26 0
-22 20 5 21 16 1 18 2 5 6 -10 2 -30 -5 -44 -16 -34 -26 -80 -27 -93 -2 -13
24 -39 34 -206 76 -173 44 -235 62 -303 86 -71 25 -96 25 -89 -1 5 -19 4 -19
-22 2 -17 14 -35 48 -51 96 -23 70 -49 113 -37 61z m161 -175 c3 -8 2 -12 -4
-9 -6 3 -10 10 -10 16 0 14 7 11 14 -7z m-19 -25 c11 -17 -1 -21 -15 -4 -8 9
-8 15 -2 15 6 0 14 -5 17 -11z m-27 -136 c-4 -20 -58 -32 -58 -13 0 8 9 10 26
6 21 -6 25 -4 21 8 -4 9 -2 16 4 16 6 0 9 -8 7 -17z m237 7 c3 -5 1 -10 -4
-10 -6 0 -11 5 -11 10 0 6 2 10 4 10 3 0 8 -4 11 -10z m510 -155 c19 -49 35
-93 35 -97 0 -4 -16 -8 -35 -8 -39 0 -75 28 -75 59 0 11 -5 23 -10 26 -6 4 -8
10 -5 15 3 5 -6 34 -20 66 -14 31 -24 58 -23 59 2 1 19 6 38 12 40 11 35 18
95 -132z m-515 95 c5 0 7 6 4 13 -3 8 2 14 10 14 11 0 13 -5 5 -19 -5 -10 -19
-18 -29 -18 -22 0 -23 1 -13 27 7 17 8 17 11 1 2 -10 7 -18 12 -18z m-200 10
c0 -5 -5 -10 -11 -10 -5 0 -7 5 -4 10 3 6 8 10 11 10 2 0 4 -4 4 -10z m410
-21 c0 -5 -5 -9 -11 -9 -5 0 -7 -4 -4 -10 3 -5 0 -10 -8 -10 -10 0 -13 8 -10
24 3 16 10 23 19 19 8 -3 14 -9 14 -14z m155 -24 c6 -30 6 -30 -10 4 -17 38
-19 49 -6 36 5 -6 12 -23 16 -40z"/>
<path d="M859 500 c13 -11 30 -20 39 -20 19 0 15 3 -28 24 l-35 17 24 -21z"/>
<path d="M486 455 c4 -8 8 -15 10 -15 2 0 4 7 4 15 0 8 -4 15 -10 15 -5 0 -7
-7 -4 -15z"/>
<path d="M280 447 c0 -4 12 -35 26 -68 14 -34 23 -67 20 -74 -6 -16 31 -51 64
-59 14 -3 20 -3 13 0 -7 3 -10 11 -7 19 7 17 -8 46 -59 115 -51 69 -57 76 -57
67z"/>
<path d="M1113 413 c9 -2 25 -2 35 0 9 3 1 5 -18 5 -19 0 -27 -2 -17 -5z"/>
<path d="M1178 403 c7 -3 16 -2 19 1 4 3 -2 6 -13 5 -11 0 -14 -3 -6 -6z"/>
<path d="M1583 403 c9 -2 23 -2 30 0 6 3 -1 5 -18 5 -16 0 -22 -2 -12 -5z"/>
<path d="M1230 393 c8 -3 32 -14 53 -25 20 -10 37 -14 37 -9 0 10 -73 41 -93
40 -7 0 -6 -3 3 -6z"/>
<path d="M1643 393 c9 -2 23 -2 30 0 6 3 -1 5 -18 5 -16 0 -22 -2 -12 -5z"/>
<path d="M1690 383 c0 -5 11 -9 25 -9 14 -1 25 2 25 7 0 5 -11 9 -25 9 -14 0
-25 -3 -25 -7z"/>
<path d="M1758 373 c6 -2 18 -2 25 0 6 3 1 5 -13 5 -14 0 -19 -2 -12 -5z"/>
<path d="M1823 373 c9 -2 23 -2 30 0 6 3 -1 5 -18 5 -16 0 -22 -2 -12 -5z"/>
<path d="M1330 339 c-12 -8 -10 -9 9 -4 15 5 27 2 33 -6 8 -11 9 -11 5 1 -5
19 -27 23 -47 9z"/>
<path d="M2025 340 l-30 -8 33 -1 c17 0 32 4 32 9 0 6 -1 9 -2 9 -2 -1 -16 -5
-33 -9z"/>
<path d="M1563 303 c9 -2 25 -2 35 0 9 3 1 5 -18 5 -19 0 -27 -2 -17 -5z"/>
<path d="M2513 270 c10 -26 9 -32 -8 -45 -36 -28 -219 -114 -258 -121 -21 -3
-36 -9 -33 -12 12 -11 144 32 220 72 93 48 115 75 96 111 -19 35 -31 31 -17
-5z"/>
<path d="M50 275 c-8 -9 -8 -15 -2 -15 12 0 26 19 19 26 -2 2 -10 -2 -17 -11z"/>
<path d="M20 233 c0 -9 30 -31 75 -55 46 -25 189 -57 255 -58 25 0 70 -7 100
-15 60 -16 144 -19 175 -5 16 7 12 9 -20 10 -31 1 -35 3 -20 9 37 15 96 21 89
9 -4 -7 -2 -8 4 -4 7 4 12 12 12 18 0 10 -103 4 -136 -9 -10 -4 -14 3 -14 28
0 24 -3 30 -9 20 -5 -8 -7 -20 -4 -27 2 -7 0 -21 -6 -32 -11 -21 -42 -20 -69
1 -7 6 -36 10 -65 8 -29 -1 -81 5 -117 13 -36 8 -89 19 -117 26 -34 7 -53 17
-53 26 0 8 -6 14 -12 14 -7 0 -25 7 -40 14 -16 8 -28 12 -28 9z"/>
<path d="M440 229 c0 -5 5 -7 10 -4 6 3 10 8 10 11 0 2 -4 4 -10 4 -5 0 -10
-5 -10 -11z"/>
<path d="M635 183 c-51 -6 -75 -13 -75 -21 0 -5 24 -5 53 -1 28 4 61 8 72 8
17 1 17 3 5 11 -8 5 -17 9 -20 8 -3 0 -18 -3 -35 -5z"/>
<path d="M861 144 c15 -34 48 -74 63 -74 5 0 -2 13 -17 28 -15 15 -27 33 -27
39 0 6 -7 16 -16 23 -13 12 -14 10 -3 -16z"/>
<path d="M1015 108 c-73 -18 -84 -29 -26 -23 30 2 62 11 70 20 17 17 14 17
-44 3z"/>
<path d="M1310 110 c0 -5 5 -10 10 -10 6 0 10 5 10 10 0 6 -4 10 -10 10 -5 0
-10 -4 -10 -10z"/>
<path d="M973 63 c15 -2 37 -2 50 0 12 2 0 4 -28 4 -27 0 -38 -2 -22 -4z"/>
</g>
</svg>
